{"asset":{"version":"2.0","generator":"babylon.js glTF exporter for 3dsmax 2020 v20200123.4"},"scene":0,"scenes":[{"nodes":[0,1],"extensions":{}}],"nodes":[{"mesh":0,"translation":[-4.440737,10.7990265,-15.2095709],"rotation":[0.6710421,0.222940937,0.222940892,0.671041965],"scale":[0.143763155,0.143763155,0.143763155],"name":"Box003"},{"translation":[0.0,0.0,0.0],"rotation":[0.0,0.0,0.0,1.0],"scale":[1.0,1.0,1.0],"name":"Default light"}],"meshes":[{"primitives":[{"attributes":{"POSITION":1,"NORMAL":2,"TEXCOORD_0":3},"indices":0,"mode":4,"material":0}],"name":"Box003"}],"accessors":[{"bufferView":0,"componentType":5123,"count":72,"type":"SCALAR","name":"accessorIndices"},{"bufferView":1,"componentType":5126,"count":72,"max":[21.4271965,30.1687965,54.6572456],"min":[-68.53346,-3.08192057E-06,-43.41402],"type":"VEC3","name":"accessorPositions"},{"bufferView":1,"byteOffset":864,"componentType":5126,"count":72,"type":"VEC3","name":"accessorNormals"},{"bufferView":2,"componentType":5126,"count":72,"type":"VEC2","name":"accessorUVs"}],"bufferViews":[{"buffer":0,"byteLength":144,"name":"bufferViewScalar"},{"buffer":0,"byteOffset":144,"byteLength":1728,"byteStride":12,"name":"bufferViewFloatVec3"},{"buffer":0,"byteOffset":1872,"byteLength":576,"byteStride":8,"name":"bufferViewFloatVec2"}],"buffers":[{"uri":"mModel.bin","byteLength":2448}],"materials":[{"pbrMetallicRoughness":{"baseColorFactor":[1.0,1.0,1.0,1.0],"baseColorTexture":{"index":0,"texCoord":0},"metallicFactor":0.0,"roughnessFactor":0.450053632},"emissiveFactor":[0.0,0.0,0.0],"alphaMode":"OPAQUE","name":"Material #2"}],"textures":[{"sampler":0,"source":0,"name":"marble-texture-white-pattern.jpg"}],"images":[{"uri":"./marble-texture-white-pattern.jpg"}],"samplers":[{"magFilter":9729,"minFilter":9987,"wrapS":10497,"wrapT":10497}]}